<svg id="Layer_1" data-name="Layer 1" xmlns="http://www.w3.org/2000/svg" viewBox="0 0 107.84 122.88"><defs><style>.cls-1{fill-rule:evenodd;}</style></defs><title>male-reporter-journalist</title><path class="cls-1" d="M58.68,113H49l1.5,9.93h6.71L58.68,113ZM27.57,43.58c.76-2.11,1.92-2.8,3.45-2.75l-1-.68c-.54-6.84,1.06-18.72-6.38-21C37.7,1.8,53.91-7.65,66.09,7.81c14.67.77,20.55,24.08,8.85,33.88l-.07.58A6.78,6.78,0,0,1,76.23,42a4.37,4.37,0,0,1,2.39.45,3.43,3.43,0,0,1,1.67,2A6.18,6.18,0,0,1,80.21,48l-1.83,5.19a3.82,3.82,0,0,1-1.16,1.9,3.42,3.42,0,0,1-2.48.6l-.51,0c-.11,5.56-2.74,8.24-6.24,11.53C70.9,76.77,77.53,78,84.3,79.47l.58.12c5.44,1.1,10.68,2.09,13.31,3.56A15.2,15.2,0,0,1,103,87.24c3.33,4.39,3.61,18.4,4.82,23.78-.29,3.15-2.08,5-5.58,5.22H67.53a6.64,6.64,0,0,0,3.65-1.86h0a6.61,6.61,0,0,0,1.93-4.65v-16A6.6,6.6,0,0,0,71.18,89h0a6.62,6.62,0,0,0-3.06-1.75c.06-.27.1-.54.14-.81a4.73,4.73,0,0,0,.08-.93c0-.13,0-.26,0-.4a5.46,5.46,0,0,0,.06-.82c0-.5,0-1-.07-1.36s-.12-1-.19-1.36l0-.17a5,5,0,0,0-.38-1.26,5,5,0,0,0-.25-.9c-.11-.29-.23-.57-.36-.85l1.32-3.84a17.84,17.84,0,0,1-2.59-5.21A13.14,13.14,0,0,1,64,70.76a16.19,16.19,0,0,1-9.8,3.49A17.56,17.56,0,0,1,44,70.71a16.92,16.92,0,0,1-3.6,6.19l.52,1.36c-.07.14-.13.28-.19.41a5.28,5.28,0,0,0-.53,1.52,4.62,4.62,0,0,0-.3.91,12.33,12.33,0,0,0-.26,1.42l0,.18c0,.31-.06.68-.08,1.1a5.25,5.25,0,0,0,0,.56,5.5,5.5,0,0,0,.08.91,6.53,6.53,0,0,0,0,.88l.1.58.1.54a6.68,6.68,0,0,0-2.45,1.2,4.77,4.77,0,0,0-.64.55,6.57,6.57,0,0,0-1.94,4.67v16a6.55,6.55,0,0,0,1.94,4.65l0,0a6.71,6.71,0,0,0,3.63,1.86H5.58C2.08,116,.3,114.16,0,111c1.21-5.37,1.5-19.4,4.82-23.78a15,15,0,0,1,4.83-4.09c6.64-3.7,21.51-3.7,28.27-7.91a13.74,13.74,0,0,0,3.69-6.42l-1.27-1.1c-3.63-3.13-6.66-5.74-7.23-12.1h-.33a4.37,4.37,0,0,1-2.13-.56,5.82,5.82,0,0,1-2.35-2.85,13,13,0,0,1-.94-4.28c0-.44,0-1.33,0-2.17h0c0-.73.06-1.43.11-1.84a1.33,1.33,0,0,1,.1-.34ZM43.83,67.06a1.27,1.27,0,0,1,.33.24c.18.17.38.35.6.53a15.26,15.26,0,0,0,9.39,3.63c3.43,0,6.87-1.5,10.07-4.59l1.45-1.37c3.57-3.36,6.21-5.83,5.7-11.87a1.41,1.41,0,0,1,.23-.88,1.39,1.39,0,0,1,1.93-.39,4.7,4.7,0,0,0,.69.37h.06a2,2,0,0,0,.6.14,2.33,2.33,0,0,0,.6,0,3.31,3.31,0,0,0,.27-.65l1.77-5a3.42,3.42,0,0,0,.11-1.86.65.65,0,0,0-.32-.42,1.66,1.66,0,0,0-.88-.12,4.9,4.9,0,0,0-2.49,1.05,1.46,1.46,0,0,1-1.08.26,1.39,1.39,0,0,1-1.14-1.61c1.31-7.67.71-12.67-.92-16.08a13.72,13.72,0,0,0-6.19-6.15,23.4,23.4,0,0,1-13.23,5.17,20.57,20.57,0,0,0-10.59,3.7,10.17,10.17,0,0,0-4,5A12.65,12.65,0,0,0,36.58,43a1.37,1.37,0,0,1,0,.87,1.4,1.4,0,0,1-1.79.83l-1.27-.46c-1.65-.58-2.82-.85-3.27.19,0,.33-.06.85-.07,1.39,0,.76,0,1.56,0,2a9.75,9.75,0,0,0,.72,3.32A3,3,0,0,0,32,52.64a1.52,1.52,0,0,0,.79.2A3.68,3.68,0,0,0,34,52.66a1.49,1.49,0,0,1,.42-.08,1.4,1.4,0,0,1,1.43,1.36c.15,6.32,3,8.73,6.36,11.67l1.43,1.24.24.21Zm5-5.18a1,1,0,0,1,.1-.55A.89.89,0,0,1,50.12,61a8.83,8.83,0,0,0,4.1,1.12A8.25,8.25,0,0,0,58.27,61a.89.89,0,0,1,1.22.35.9.9,0,0,1-.35,1.23,9.93,9.93,0,0,1-4.91,1.32,10.1,10.1,0,0,1-4.31-1c-.46-.21-1-.4-1.12-1Zm1.59-23.07c1.44.54,1.75,1.75.94,2.2s-2.14-.26-3.07-.56c-2.42-.77-5.29-.86-7.38.45a11.36,11.36,0,0,0-1.69,1.34,5.8,5.8,0,0,1,1-2.08c2.09-2.64,7.37-2.79,10.17-1.35Zm7.37,0c-1.45.54-1.75,1.75-.94,2.2s2.14-.26,3.07-.56c2.41-.77,5.28-.86,7.37.45A11.42,11.42,0,0,1,69,42.24a6,6,0,0,0-1-2.08c-2.1-2.64-7.37-2.79-10.17-1.35ZM42.47,44a.66.66,0,0,1-.36-.42.69.69,0,0,1,.37-.86,9.89,9.89,0,0,1,7.2,0,.7.7,0,0,1,.39.84.58.58,0,0,1-.74.44c-.4-.14-.8-.26-1.19-.36a1.67,1.67,0,1,1-3.28.45,1.66,1.66,0,0,1,.13-.64,8.12,8.12,0,0,0-1.77.42c-.24.08-.49.23-.75.13Zm18-.45a1.62,1.62,0,0,0-.1.54,1.67,1.67,0,1,0,3.17-.74,11,11,0,0,1,2.2.49.58.58,0,0,0,.73-.47.7.7,0,0,0-.4-.84,11.64,11.64,0,0,0-3.61-.58,11.2,11.2,0,0,0-3.55.59.69.69,0,0,0-.41.84.59.59,0,0,0,.73.46,11,11,0,0,1,1.18-.33c.1,0,.08,0,.06,0ZM51.67,55.63a.8.8,0,0,1,.18-.37.86.86,0,0,1,1.21-.1,2,2,0,0,0,1.23.55,2,2,0,0,0,1.29-.56.86.86,0,0,1,1.21.11.87.87,0,0,1-.12,1.21,3.66,3.66,0,0,1-2.4.94,3.3,3.3,0,0,1-2-.68c-.37-.27-.74-.55-.61-1.1ZM47.18,98v7.07H45.52l-1-3.22v3.22H43V98h1.58l1.06,3.18V98Zm1.25,0h3.16v1.41H50.32v1.35H51.5v1.34H50.32v1.55h1.39v1.42H48.43V98Zm11.44,0L59,105.07H56.66q-.31-1.63-.57-3.72c-.08.6-.26,1.84-.53,3.72H53.21L52.36,98H54.2l.2,2.47.2,2.38c.07-1.23.24-2.85.52-4.85h2c0,.21.09,1,.2,2.33l.21,2.69c.12-1.71.29-3.39.53-5Zm4.86,2.14H63v-.52a.94.94,0,0,0-.07-.47.23.23,0,0,0-.22-.1.3.3,0,0,0-.26.14.83.83,0,0,0-.08.4,1.1,1.1,0,0,0,.1.54,1.51,1.51,0,0,0,.53.43,5.51,5.51,0,0,1,1.59,1.2,2.64,2.64,0,0,1,.33,1.5,2.59,2.59,0,0,1-.19,1.12,1.41,1.41,0,0,1-.7.59,2.73,2.73,0,0,1-1.21.25,2.87,2.87,0,0,1-1.3-.28,1.41,1.41,0,0,1-.7-.71,3.59,3.59,0,0,1-.17-1.23v-.46h1.76v.86a1.1,1.1,0,0,0,.08.51.29.29,0,0,0,.26.11.32.32,0,0,0,.28-.14.83.83,0,0,0,.09-.43,1.36,1.36,0,0,0-.17-.82A6.41,6.41,0,0,0,62,102a7.51,7.51,0,0,1-.93-.66,1.54,1.54,0,0,1-.38-.57,2.42,2.42,0,0,1-.15-.92,2.55,2.55,0,0,1,.21-1.19,1.46,1.46,0,0,1,.69-.59,2.85,2.85,0,0,1,1.15-.21,3.1,3.1,0,0,1,1.25.23,1.29,1.29,0,0,1,.69.59,3,3,0,0,1,.17,1.19v.28ZM52.1,75.35a9.28,9.28,0,0,1,10.48,5.77H45.27a9.25,9.25,0,0,1,6.83-5.77ZM41.34,92.27H66.5a1.43,1.43,0,0,1,1.42,1.42v16a1.42,1.42,0,0,1-1.42,1.41H41.34a1.41,1.41,0,0,1-1.41-1.41v-16a1.42,1.42,0,0,1,1.41-1.42Zm21.6-10c0,.1.05.21.07.31a8.74,8.74,0,0,1,.18,1.75H44.65a9.44,9.44,0,0,1,.25-2.06Zm.19,3.24a9.26,9.26,0,0,1-2.54,5.34H47.25a9.33,9.33,0,0,1-2.42-4.62c0-.24-.08-.48-.11-.72Z"/></svg>